<svg xmlns="http://www.w3.org/2000/svg" width="362" height="2761" viewBox="0 0 362 2761">
  <g id="Group_1337" data-name="Group 1337" transform="translate(-29 -222)">
    <text id="_販売_サービス関連_積極採用中の企業3社_をご紹介_サンプル_" data-name="【販売・サービス関連】積極採用中の企業3社
をご紹介！（サンプル）" transform="translate(44 239)" fill="#666" font-size="16" font-family="Meiryo-Bold, Meiryo" font-weight="700"><tspan x="0" y="0">【販売・サービス関連】積極採用中の企業3社</tspan><tspan x="0" y="20">をご紹介！（サンプル）</tspan></text>
    <text id="本メールは販売_サービス関連の職種を希望または経験職種として_登録していただいている方にお送りしております_転職応援サイト_イーキャリア_編集部オススメの採用情報_I_N_D_E_X_1_1社目のタイトルが入ります_2_2社目のタイトルが入ります_3_3社目のタイトルが入ります_1_1社目のタイトルが入ります_社名が入ります_本" data-name="本メールは販売・サービス関連の職種を希望または経験職種として
登録していただいている方にお送りしております。

━━━━━━━━━━━━━━━
転職応援サイト「イーキャリア」
＋ 編集部オススメの採用情報 ＋
━━━━━━━━━━━━━━━

[I N D E X]
【1】1社目のタイトルが入ります
【2】2社目のタイトルが入ります
【3】3社目のタイトルが入ります






〓〓〓〓〓〓〓〓〓〓〓〓〓〓〓
【1】1社目のタイトルが入ります

[社名が入ります]
〓〓〓〓〓〓〓〓〓〓〓〓〓〓〓




本" transform="translate(44 287)" fill="#666" font-size="14" font-family="Meiryo"><tspan x="0" y="15">本メールは販売・サービス関連の職種を希望または</tspan><tspan x="0" y="37">経験職種として</tspan><tspan x="0" y="59">登録していただいている方にお送りしております。</tspan><tspan x="0" y="81"></tspan><tspan x="0" y="103">━━━━━━━━━━━━━━━</tspan><tspan x="0" y="125">転職応援サイト「イーキャリア」</tspan><tspan x="0" y="147">＋ 編集部オススメの採用情報 ＋</tspan><tspan x="0" y="169">━━━━━━━━━━━━━━━</tspan><tspan x="0" y="191"></tspan><tspan x="0" y="213">[I N D E X]</tspan><tspan x="0" y="235">【1】1社目のタイトルが入ります</tspan><tspan x="0" y="257">【2】2社目のタイトルが入ります</tspan><tspan x="0" y="279">【3】3社目のタイトルが入ります</tspan><tspan x="0" y="301"></tspan><tspan x="0" y="323"></tspan><tspan x="0" y="345"></tspan><tspan x="0" y="367"></tspan><tspan x="0" y="389"></tspan><tspan x="0" y="411"></tspan><tspan x="0" y="433">〓〓〓〓〓〓〓〓〓〓〓〓〓〓〓</tspan><tspan x="0" y="455">【1】1社目のタイトルが入ります</tspan><tspan x="0" y="477"></tspan><tspan x="0" y="499">[社名が入ります]</tspan><tspan x="0" y="521">〓〓〓〓〓〓〓〓〓〓〓〓〓〓〓</tspan><tspan x="0" y="543"></tspan><tspan x="0" y="565"></tspan><tspan x="0" y="587"></tspan><tspan x="0" y="609"></tspan><tspan x="0" y="631">本文が入ります（自由作成）</tspan><tspan x="0" y="653"></tspan><tspan x="0" y="675"></tspan><tspan x="0" y="697"></tspan><tspan x="0" y="719"></tspan><tspan x="0" y="741"></tspan><tspan x="0" y="763"></tspan><tspan x="0" y="785"></tspan><tspan x="0" y="807">求人名が入ります：</tspan><tspan x="0" y="829">http://www.ecareer.ne.jp/ct.jsp?</tspan><tspan x="0" y="851">j=0003465XXXX-5</tspan><tspan x="0" y="873">求人名が入ります：</tspan><tspan x="0" y="895">http://www.ecareer.ne.jp/ct.jsp?</tspan><tspan x="0" y="917">j=000346XXXXX-6</tspan><tspan x="0" y="939"></tspan><tspan x="0" y="961"></tspan><tspan x="0" y="983"></tspan><tspan x="0" y="1005"></tspan><tspan x="0" y="1027"></tspan><tspan x="0" y="1049"></tspan><tspan x="0" y="1071"></tspan><tspan x="0" y="1093"></tspan><tspan x="0" y="1115">〓〓〓〓〓〓〓〓〓〓〓〓〓〓〓</tspan><tspan x="0" y="1137">【2】2社目のタイトルが入ります</tspan><tspan x="0" y="1159"></tspan><tspan x="0" y="1181">[社名が入ります]</tspan><tspan x="0" y="1203">〓〓〓〓〓〓〓〓〓〓〓〓〓〓〓</tspan><tspan x="0" y="1225"></tspan><tspan x="0" y="1247"></tspan><tspan x="0" y="1269"></tspan><tspan x="0" y="1291"></tspan><tspan x="0" y="1313">本文が入ります（自由作成）</tspan><tspan x="0" y="1335"></tspan><tspan x="0" y="1357"></tspan><tspan x="0" y="1379"></tspan><tspan x="0" y="1401"></tspan><tspan x="0" y="1423">求人名が入ります：</tspan><tspan x="0" y="1445">http://www.ecareer.ne.jp/ct.jsp?</tspan><tspan x="0" y="1467">j=0003465XXXX-5</tspan><tspan x="0" y="1489">求人名が入ります：</tspan><tspan x="0" y="1511">http://www.ecareer.ne.jp/ct.jsp?</tspan><tspan x="0" y="1533">j=000346XXXXX-6</tspan><tspan x="0" y="1555"></tspan><tspan x="0" y="1577"></tspan><tspan x="0" y="1599"></tspan><tspan x="0" y="1621">〓〓〓〓〓〓〓〓〓〓〓〓〓〓〓</tspan><tspan x="0" y="1643">【3】3社目のタイトルが入ります</tspan><tspan x="0" y="1665"></tspan><tspan x="0" y="1687">[社名が入ります]</tspan><tspan x="0" y="1709">〓〓〓〓〓〓〓〓〓〓〓〓〓〓〓</tspan><tspan x="0" y="1731"></tspan><tspan x="0" y="1753"></tspan><tspan x="0" y="1775"></tspan><tspan x="0" y="1797"></tspan><tspan x="0" y="1819">本文が入ります（自由作成）</tspan><tspan x="0" y="1841"></tspan><tspan x="0" y="1863"></tspan><tspan x="0" y="1885"></tspan><tspan x="0" y="1907"></tspan><tspan x="0" y="1929">求人名が入ります：</tspan><tspan x="0" y="1951">http://www.ecareer.ne.jp/ct.jsp?</tspan><tspan x="0" y="1973">j=0003465XXXX-5</tspan><tspan x="0" y="1995">求人名が入ります：</tspan><tspan x="0" y="2017">http://www.ecareer.ne.jp/ct.jsp?</tspan><tspan x="0" y="2039">j=000346XXXXX-6</tspan><tspan x="0" y="2061"></tspan><tspan x="0" y="2083"></tspan><tspan x="0" y="2105"></tspan><tspan x="0" y="2127">━━━━━━━━━━━━━━━</tspan><tspan x="0" y="2149">SBヒューマンキャピタル株式会社</tspan><tspan x="0" y="2171">転職応援サイト「イーキャリア」編集部</tspan><tspan x="0" y="2193">http://www.ecareer.ne.jp/</tspan><tspan x="0" y="2215"></tspan><tspan x="0" y="2237">※本メールは販売・サービス関連の職種を希望また</tspan><tspan x="0" y="2259">は経験職種として</tspan><tspan x="0" y="2281">登録していただいている方にお送りしております。</tspan><tspan x="0" y="2303">すでに上記企業に応募済みの場合、あるいは条件に</tspan><tspan x="0" y="2325">合わない場合もありますが、何卒ご了承ください。</tspan><tspan x="0" y="2347">------------------------------</tspan><tspan x="0" y="2369">■本メールには直接ご返信いただけません。ご意</tspan><tspan x="0" y="2391">見・ご質問はこちら</tspan><tspan x="0" y="2413">https://www.ecareer.ne.jp/privacy_confirm.jsp?</tspan><tspan x="0" y="2435">after=reg_com</tspan><tspan x="0" y="2457">■メールマガジンの配信・停止設定はこちら</tspan><tspan x="0" y="2479">https://www.ecareer.ne.jp/user/config/config-</tspan><tspan x="0" y="2501">index.do</tspan><tspan x="0" y="2523">（ログインが必要です）</tspan><tspan x="0" y="2545">■パスワードのお問い合わせはこちら</tspan><tspan x="0" y="2567">https://www.ecareer.ne.jp/privacy_confirm.jsp?</tspan><tspan x="0" y="2589">after=ReminderMail</tspan><tspan x="0" y="2611">(IDは &lt; XXX@softbankhc.jp &gt; です)</tspan><tspan x="0" y="2633">━━━━━━━━━━━━━━━</tspan><tspan x="0" y="2655">Copyright(C) SB Human Capital Corp. All Rights </tspan><tspan x="0" y="2677">Reserved.</tspan></text>
    <rect id="Rectangle_3963" data-name="Rectangle 3963" width="251" height="114" transform="translate(29 470)" fill="#7ec8ff" opacity="0.297"/>
    <rect id="Rectangle_3965" data-name="Rectangle 3965" width="251" height="102" transform="translate(29 863)" fill="#7ec8ff" opacity="0.297"/>
    <g id="Rectangle_3964" data-name="Rectangle 3964" transform="translate(29 470)" fill="none" stroke="#0093ff" stroke-width="5">
      <rect width="251" height="114" stroke="none"/>
      <rect x="2.5" y="2.5" width="246" height="109" fill="none"/>
    </g>
    <g id="Rectangle_3966" data-name="Rectangle 3966" transform="translate(29 863)" fill="none" stroke="#0093ff" stroke-width="5">
      <rect width="251" height="102" stroke="none"/>
      <rect x="2.5" y="2.5" width="246" height="97" fill="none"/>
    </g>
    <g id="Rectangle_3967" data-name="Rectangle 3967" transform="translate(29 1063)" fill="none" stroke="#0093ff" stroke-width="5">
      <rect width="251" height="159" stroke="none"/>
      <rect x="2.5" y="2.5" width="246" height="154" fill="none"/>
    </g>
    <rect id="Rectangle_3968" data-name="Rectangle 3968" width="251" height="159" transform="translate(29 1064)" fill="#7ec8ff" opacity="0.3"/>
    <g id="Group_1188" data-name="Group 1188" transform="translate(-333 586)">
      <path id="Path_388" data-name="Path 388" d="M5,0H181a5,5,0,0,1,5,5V64a5,5,0,0,1-5,5H5a5,5,0,0,1-5-5V5A5,5,0,0,1,5,0Z" transform="translate(395 397)" fill="#0093ff"/>
      <text id="本文は自由に設定することができます_" data-name="本文は自由に設定することができます。" transform="translate(406 410)" fill="#fff" font-size="14" font-family="Meiryo-Bold, Meiryo" font-weight="700"><tspan x="0" y="15">本文は自由に設定するこ</tspan><tspan x="0" y="36">とができます。</tspan></text>
      <path id="Path_389" data-name="Path 389" d="M7.234,7.09,14,21H0Z" transform="translate(481 378.91)" fill="#0093ff"/>
    </g>
    <g id="Group_1189" data-name="Group 1189" transform="translate(-373 845)">
      <rect id="Rectangle_1735" data-name="Rectangle 1735" width="188" height="131" rx="5" transform="translate(433 397)" fill="#0093ff"/>
      <text id="_3職種まで設定いただけます_必要に応じて_企業概要_を表示させることができます_" data-name="3職種まで設定いただけます。必要に応じて
・企業概要
を表示させることができます。" transform="translate(450 413)" fill="#fff" font-size="14" font-family="Meiryo-Bold, Meiryo" font-weight="700"><tspan x="0" y="15">3職種まで設定いただけ</tspan><tspan x="0" y="36">ます。必要に応じて</tspan><tspan x="0" y="57">・企業概要</tspan><tspan x="0" y="78">を表示させることができ</tspan><tspan x="0" y="99">ます。</tspan></text>
      <path id="Path_390" data-name="Path 390" d="M7.234,7.09,14,21H0Z" transform="translate(521 376.91)" fill="#0093ff"/>
    </g>
    <g id="Group_1190" data-name="Group 1190" transform="translate(-325 213)">
      <rect id="Rectangle_1735-2" data-name="Rectangle 1735" width="186" height="68" rx="5" transform="translate(387 397)" fill="#0093ff"/>
      <path id="Path_52" data-name="Path 52" d="M7.234,7.09,14,21H0Z" transform="translate(476 375.91)" fill="#0093ff"/>
      <text id="_3社共同配信のメールオプションです" data-name="3社共同配信のメールオプションです" transform="translate(401 410)" fill="#fff" font-size="14" font-family="Meiryo-Bold, Meiryo" font-weight="700"><tspan x="0" y="15">3社共同配信のメールオ</tspan><tspan x="0" y="36">プションです</tspan></text>
    </g>
    <path id="Path_385" data-name="Path 385" d="M12887.871-22645h25.02v529h-25.02" transform="translate(-12594 23489.5)" fill="none" stroke="#0093ff" stroke-width="5"/>
    <path id="Path_386" data-name="Path 386" d="M12887.871-22645h25.02v471.627h-25.02" transform="translate(-12594 24035.496)" fill="none" stroke="#0093ff" stroke-width="5"/>
    <path id="Path_387" data-name="Path 387" d="M12887.871-22645h25.02v480.727h-25.02" transform="translate(-12594 24531.496)" fill="none" stroke="#0093ff" stroke-width="5"/>
    <text id="_1社目" data-name="1社目" transform="translate(328 1093)" fill="#0093ff" font-size="18" font-family="Meiryo-Bold, Meiryo" font-weight="700"><tspan x="0" y="19">1社目</tspan></text>
    <text id="_2社目" data-name="2社目" transform="translate(328 1610)" fill="#0093ff" font-size="18" font-family="Meiryo-Bold, Meiryo" font-weight="700"><tspan x="0" y="19">2社目</tspan></text>
    <text id="_3社目" data-name="3社目" transform="translate(328 2111)" fill="#0093ff" font-size="18" font-family="Meiryo-Bold, Meiryo" font-weight="700"><tspan x="0" y="19">3社目</tspan></text>
  </g>
</svg>
