<svg xmlns="http://www.w3.org/2000/svg" width="173.425" height="205.424" viewBox="0 0 173.425 205.424">
  <g id="Union_7" data-name="Union 7" transform="translate(-11822.502 23313.998) rotate(180)" fill="#67bdfb">
    <path d="M -11823.501953125 23312.998046875 L -11994.9267578125 23312.998046875 L -11994.9267578125 23216.998046875 L -11915.5595703125 23216.998046875 L -11914.291015625 23216.998046875 L -11914.5869140625 23215.763671875 L -11936.6865234375 23123.767578125 L -11901.6640625 23216.3515625 L -11901.4189453125 23216.998046875 L -11900.728515625 23216.998046875 L -11823.501953125 23216.998046875 L -11823.501953125 23312.998046875 Z" stroke="none"/>
    <path d="M -11824.501953125 23311.998046875 L -11824.501953125 23217.998046875 L -11900.728515625 23217.998046875 L -11902.1103515625 23217.998046875 L -11902.599609375 23216.705078125 L -11932.0087890625 23138.9609375 L -11913.615234375 23215.53125 L -11913.0224609375 23217.998046875 L -11915.5595703125 23217.998046875 L -11993.9267578125 23217.998046875 L -11993.9267578125 23311.998046875 L -11824.501953125 23311.998046875 M -11822.501953125 23313.998046875 L -11995.9267578125 23313.998046875 L -11995.9267578125 23215.998046875 L -11915.5595703125 23215.998046875 L -11941.365234375 23108.57421875 L -11900.728515625 23215.998046875 L -11822.501953125 23215.998046875 L -11822.501953125 23313.998046875 Z" stroke="none" fill="#fff"/>
  </g>
</svg>
