<svg xmlns="http://www.w3.org/2000/svg" width="30.3" height="21.392" viewBox="0 0 30.3 21.392">
  <g id="Component_88_1" data-name="Component 88 – 1" transform="translate(0.5)">
    <path id="Path_154" data-name="Path 154" d="M-13025-17676.592v14.727h18.214" transform="translate(13025 17676.592)" fill="none" stroke="#0093ff" stroke-width="1" stroke-dasharray="3 1"/>
    <path id="Path_332" data-name="Path 332" d="M11.2-12a1.545,1.545,0,0,1,1.136.464A1.545,1.545,0,0,1,12.8-10.4V-.8A1.561,1.561,0,0,1,12.336.32,1.519,1.519,0,0,1,11.2.8H1.6A1.535,1.535,0,0,1,.48.32,1.535,1.535,0,0,1,0-.8v-9.6a1.519,1.519,0,0,1,.48-1.136A1.561,1.561,0,0,1,1.6-12Zm-.8,7.2V-6.4H7.2V-9.6H5.6v3.2H2.4v1.6H5.6v3.2H7.2V-4.8Z" transform="translate(17 20.592)" fill="#0093ff"/>
  </g>
</svg>
