<svg xmlns="http://www.w3.org/2000/svg" width="120.996" height="144.445" viewBox="0 0 120.996 144.445">
  <g id="Union_8" data-name="Union 8" transform="translate(11987.499 -23238.998)" fill="#6ba7e1">
    <path d="M -11952.548828125 23377.068359375 L -11929.7470703125 23322.38671875 L -11929.169921875 23321.001953125 L -11930.669921875 23321.001953125 L -11986.4990234375 23321.001953125 L -11986.4990234375 23239.998046875 L -11867.5029296875 23239.998046875 L -11867.5029296875 23321.001953125 L -11907.9638671875 23321.001953125 L -11908.44921875 23321.001953125 L -11908.75 23321.3828125 L -11952.548828125 23377.068359375 Z" stroke="none"/>
    <path d="M -11948.806640625 23370.6953125 L -11909.5361328125 23320.765625 L -11908.935546875 23320.001953125 L -11907.9638671875 23320.001953125 L -11868.5029296875 23320.001953125 L -11868.5029296875 23240.998046875 L -11985.4990234375 23240.998046875 L -11985.4990234375 23320.001953125 L -11930.669921875 23320.001953125 L -11927.6689453125 23320.001953125 L -11928.82421875 23322.771484375 L -11948.806640625 23370.6953125 M -11956.2900390625 23383.443359375 L -11930.669921875 23322.001953125 L -11987.4990234375 23322.001953125 L -11987.4990234375 23238.998046875 L -11866.5029296875 23238.998046875 L -11866.5029296875 23322.001953125 L -11907.9638671875 23322.001953125 L -11956.2900390625 23383.443359375 Z" stroke="none" fill="#fff"/>
  </g>
</svg>
