<svg xmlns="http://www.w3.org/2000/svg" width="19.001" height="14.934" viewBox="0 0 19.001 14.934">
  <path id="Path" d="M17.651-.209V-8.341a5.392,5.392,0,0,1-.741.684q-2.831,2.185-4.522,3.591-.532.456-.874.7a6.732,6.732,0,0,1-.912.532,2.073,2.073,0,0,1-1.083.247H9.481A2.824,2.824,0,0,1,8.4-2.831a3.329,3.329,0,0,1-.912-.532q-.323-.285-.874-.7Q4.94-5.472,2.09-7.657a5.392,5.392,0,0,1-.741-.684V-.209a.345.345,0,0,0,.114.247.261.261,0,0,0,.228.095H17.309a.311.311,0,0,0,.228-.095A.409.409,0,0,0,17.651-.209Zm0-11.134v-.266l-.038-.266-.057-.1q-.057-.095-.095-.076t-.152-.038H1.691a.288.288,0,0,0-.228.114.484.484,0,0,0-.114.228A3.716,3.716,0,0,0,2.926-8.721q2.033,1.6,4.237,3.344.076.057.38.323t.475.4q.171.133.475.323t.532.3a.849.849,0,0,0,.456.095h.038a1.278,1.278,0,0,0,.456-.095,2.34,2.34,0,0,0,.532-.3q.285-.209.475-.323a2.7,2.7,0,0,0,.475-.4,1.741,1.741,0,0,1,.38-.323q2.2-1.748,4.256-3.344a4.966,4.966,0,0,0,1.064-1.235A2.676,2.676,0,0,0,17.651-11.343Zm1.349-.4V-.209a1.63,1.63,0,0,1-.494,1.2,1.7,1.7,0,0,1-1.2.513H1.691A1.641,1.641,0,0,1,.494.988,1.574,1.574,0,0,1,0-.209V-11.742a1.63,1.63,0,0,1,.494-1.2,1.63,1.63,0,0,1,1.2-.494H17.309a1.63,1.63,0,0,1,1.2.494A1.63,1.63,0,0,1,19-11.742Z" transform="translate(0.001 13.433)" fill="#fff"/>
</svg>
