<svg xmlns="http://www.w3.org/2000/svg" width="130.645" height="160.102" viewBox="0 0 130.645 160.102">
  <g id="Union_6" data-name="Union 6" transform="translate(-11869.497 23376.098) rotate(180)" fill="#67bdfb">
    <path d="M -11943.1298828125 23367.5703125 L -11921.1611328125 23299.3046875 L -11920.7412109375 23297.998046875 L -11922.11328125 23297.998046875 L -11999.1416015625 23297.998046875 L -11999.1416015625 23216.99609375 L -11870.4970703125 23216.99609375 L -11870.4970703125 23297.998046875 L -11902.1611328125 23297.998046875 L -11902.7373046875 23297.998046875 L -11903.0263671875 23298.49609375 L -11943.1298828125 23367.5703125 Z" stroke="none"/>
    <path d="M -11939.3349609375 23359.04296875 L -11903.890625 23297.994140625 L -11903.3125 23296.998046875 L -11902.1611328125 23296.998046875 L -11871.4970703125 23296.998046875 L -11871.4970703125 23217.99609375 L -11998.1416015625 23217.99609375 L -11998.1416015625 23296.998046875 L -11922.11328125 23296.998046875 L -11919.3681640625 23296.998046875 L -11920.208984375 23299.611328125 L -11939.3349609375 23359.04296875 M -11946.9248046875 23376.09765625 L -11922.11328125 23298.998046875 L -12000.1416015625 23298.998046875 L -12000.1416015625 23215.99609375 L -11869.4970703125 23215.99609375 L -11869.4970703125 23298.998046875 L -11902.1611328125 23298.998046875 L -11946.9248046875 23376.09765625 Z" stroke="none" fill="#fff"/>
  </g>
</svg>
