<svg xmlns="http://www.w3.org/2000/svg" width="20" height="16" viewBox="0 0 20 16">
  <path id="Path_330" data-name="Path 330" d="M18-15a1.9,1.9,0,0,1,1.42.6A1.951,1.951,0,0,1,20-13V-1A1.931,1.931,0,0,1,19.42.42,1.931,1.931,0,0,1,18,1H2A1.951,1.951,0,0,1,.6.42,1.9,1.9,0,0,1,0-1V-13a1.919,1.919,0,0,1,.6-1.4A1.919,1.919,0,0,1,2-15ZM4.6-13.12a.734.734,0,0,0-.54.22.711.711,0,0,0-.22.52.711.711,0,0,0,.22.52.734.734,0,0,0,.54.22.672.672,0,0,0,.76-.76.67.67,0,0,0-.22-.52A.773.773,0,0,0,4.6-13.12Zm-2.76.72a.734.734,0,0,0,.22.54.734.734,0,0,0,.54.22.672.672,0,0,0,.76-.76.67.67,0,0,0-.22-.52.773.773,0,0,0-.54-.2.734.734,0,0,0-.54.22A.689.689,0,0,0,1.84-12.4ZM18.04-1v-9.2H2V-1Zm0-10.8V-13H6v1.2Z" transform="translate(0 15)" fill="#0868c9"/>
</svg>
