<svg xmlns="http://www.w3.org/2000/svg" width="24.14" height="11.5" viewBox="0 0 24.14 11.5">
  <g id="パンくず矢印" transform="translate(24.14) rotate(90)">
    <path id="Path_323" data-name="Path 323" d="M4.5.232a.8.8,0,0,1-.177.52L-4.912,12.063a.532.532,0,0,1-.425.217.637.637,0,0,1-.46-.217l-.991-1.214A.873.873,0,0,1-7,10.286a.873.873,0,0,1,.212-.563L.962.232-6.788-9.3A.717.717,0,0,1-7-9.823a.873.873,0,0,1,.212-.563L-5.8-11.6a.535.535,0,0,1,.46-.26.456.456,0,0,1,.425.26L4.323-.332A.862.862,0,0,1,4.5.232Z" transform="translate(7 11.86)" fill="#c7c7c7"/>
  </g>
</svg>
