<svg xmlns="http://www.w3.org/2000/svg" width="17.3" height="15.2" viewBox="0 0 17.3 15.2">
  <path id="Path_331" data-name="Path 331" d="M-11.08-10.08H-1.3a1.237,1.237,0,0,1,.92.39A1.263,1.263,0,0,1,0-8.78V-.7A1.263,1.263,0,0,1-.38.21,1.237,1.237,0,0,1-1.3.6h-9.78a1.247,1.247,0,0,1-.91-.39,1.247,1.247,0,0,1-.39-.91V-8.78a1.247,1.247,0,0,1,.39-.91A1.247,1.247,0,0,1-11.08-10.08ZM-2-8.2h-8.38v6.92H-2Zm-2.92-3.62H-6.94v-.88h-8.34v6.72h1.16v1.9h-1.86a1.27,1.27,0,0,1-.93-.39,1.247,1.247,0,0,1-.39-.91v-7.9a1.27,1.27,0,0,1,.39-.93,1.27,1.27,0,0,1,.93-.39h9.76a1.237,1.237,0,0,1,.92.39,1.286,1.286,0,0,1,.38.93Z" transform="translate(17.3 14.6)" fill="#0868c9" opacity="0.3"/>
</svg>
