<svg xmlns="http://www.w3.org/2000/svg" width="346" height="1449" viewBox="0 0 346 1449">
  <g id="Group_1341" data-name="Group 1341" transform="translate(-29 -278)">
    <g id="Group_1340" data-name="Group 1340">
      <text id="_1_タイトルが入ります_社名が入ります_本文が入ります_求人名が入ります_http:_www.ecareer.ne.jp_ct.jsp_j_0003465XXXX-5_求人名が入ります_http:_www.ecareer.ne.jp_ct.jsp_j_000346XXXXX-6_SBヒューマンキャピタル株式会社_転職応援サイト_イーキャリア_編集" data-name="〓〓〓〓〓〓〓〓〓〓〓〓〓〓〓
【1】タイトルが入ります

[社名が入ります]
〓〓〓〓〓〓〓〓〓〓〓〓〓〓〓








本文が入ります









求人名が入ります：
http://www.ecareer.ne.jp/ct.jsp?j=0003465XXXX-5
求人名が入ります：
http://www.ecareer.ne.jp/ct.jsp?j=000346XXXXX-6









━━━━━━━━━━━━━━━
SBヒューマンキャピタル株式会社
転職応援サイト「イーキャリア」編集" transform="translate(44 287)" fill="#666" font-size="14" font-family="Meiryo"><tspan x="0" y="15">〓〓〓〓〓〓〓〓〓〓〓〓〓〓〓</tspan><tspan x="0" y="37">【1】タイトルが入ります</tspan><tspan x="0" y="59"></tspan><tspan x="0" y="81">[社名が入ります]</tspan><tspan x="0" y="103">〓〓〓〓〓〓〓〓〓〓〓〓〓〓〓</tspan><tspan x="0" y="125"></tspan><tspan x="0" y="147"></tspan><tspan x="0" y="169"></tspan><tspan x="0" y="191"></tspan><tspan x="0" y="213"></tspan><tspan x="0" y="235"></tspan><tspan x="0" y="257"></tspan><tspan x="0" y="279"></tspan><tspan x="0" y="301">本文が入ります</tspan><tspan x="0" y="323"></tspan><tspan x="0" y="345"></tspan><tspan x="0" y="367"></tspan><tspan x="0" y="389"></tspan><tspan x="0" y="411"></tspan><tspan x="0" y="433"></tspan><tspan x="0" y="455"></tspan><tspan x="0" y="477"></tspan><tspan x="0" y="499"></tspan><tspan x="0" y="521">求人名が入ります：</tspan><tspan x="0" y="543">http://www.ecareer.ne.jp/ct.jsp?</tspan><tspan x="0" y="565">j=0003465XXXX-5</tspan><tspan x="0" y="587">求人名が入ります：</tspan><tspan x="0" y="609">http://www.ecareer.ne.jp/ct.jsp?</tspan><tspan x="0" y="631">j=000346XXXXX-6</tspan><tspan x="0" y="653"></tspan><tspan x="0" y="675"></tspan><tspan x="0" y="697"></tspan><tspan x="0" y="719"></tspan><tspan x="0" y="741"></tspan><tspan x="0" y="763"></tspan><tspan x="0" y="785"></tspan><tspan x="0" y="807"></tspan><tspan x="0" y="829"></tspan><tspan x="0" y="851">━━━━━━━━━━━━━━━</tspan><tspan x="0" y="873">SBヒューマンキャピタル株式会社</tspan><tspan x="0" y="895">転職応援サイト「イーキャリア」編集部</tspan><tspan x="0" y="917">http://www.ecareer.ne.jp/</tspan><tspan x="0" y="939"></tspan><tspan x="0" y="961">※本メールはソフトウェア・ネットワーク関連の職</tspan><tspan x="0" y="983">種を希望または経験職種として</tspan><tspan x="0" y="1005">登録していただいている方にお送りしております。</tspan><tspan x="0" y="1027">すでに上記企業に応募済みの場合、あるいは条件に</tspan><tspan x="0" y="1049">合わない場合もありますが、何卒ご了承ください。</tspan><tspan x="0" y="1071">------------------------------</tspan><tspan x="0" y="1093">■本メールには直接ご返信いただけません。ご意</tspan><tspan x="0" y="1115">見・ご質問はこちら</tspan><tspan x="0" y="1137">https://www.ecareer.ne.jp/privacy_confirm.jsp?</tspan><tspan x="0" y="1159">after=reg_com</tspan><tspan x="0" y="1181">■メールマガジンの配信・停止設定はこちら</tspan><tspan x="0" y="1203">https://www.ecareer.ne.jp/user/config/config-</tspan><tspan x="0" y="1225">index.do</tspan><tspan x="0" y="1247">（ログインが必要です）</tspan><tspan x="0" y="1269">■パスワードのお問い合わせはこちら</tspan><tspan x="0" y="1291">https://www.ecareer.ne.jp/privacy_confirm.jsp?</tspan><tspan x="0" y="1313">after=ReminderMail</tspan><tspan x="0" y="1335" xml:space="preserve">(IDは &lt;  XXX@softbankhc.jp  &gt; です)</tspan><tspan x="0" y="1357">━━━━━━━━━━━━━━━</tspan><tspan x="0" y="1379">Copyright(C) SB Human Capital Corp. All Rights </tspan><tspan x="0" y="1401">Reserved.</tspan></text>
      <g id="Group_1188" data-name="Group 1188" transform="translate(-333 273)">
        <path id="Path_388" data-name="Path 388" d="M5,0H181a5,5,0,0,1,5,5V64a5,5,0,0,1-5,5H5a5,5,0,0,1-5-5V5A5,5,0,0,1,5,0Z" transform="translate(395 397)" fill="#0093ff"/>
        <text id="本文は自由に設定することができます_" data-name="本文は自由に設定することができます。" transform="translate(406 410)" fill="#fff" font-size="14" font-family="Meiryo-Bold, Meiryo" font-weight="700"><tspan x="0" y="15">本文は自由に設定するこ</tspan><tspan x="0" y="36">とができます。</tspan></text>
        <path id="Path_389" data-name="Path 389" d="M7.234,7.09,14,21H0Z" transform="translate(481 378.91)" fill="#0093ff"/>
      </g>
      <g id="Group_1339" data-name="Group 1339">
        <g id="Group_1338" data-name="Group 1338">
          <rect id="Rectangle_3963" data-name="Rectangle 3963" width="251" height="128" transform="translate(29 278)" fill="#7ec8ff" opacity="0.297"/>
          <rect id="Rectangle_3965" data-name="Rectangle 3965" width="251" height="116" transform="translate(29 525)" fill="#7ec8ff" opacity="0.297"/>
          <g id="Rectangle_3964" data-name="Rectangle 3964" transform="translate(29 278)" fill="none" stroke="#0093ff" stroke-width="5">
            <rect width="251" height="128" stroke="none"/>
            <rect x="2.5" y="2.5" width="246" height="123" fill="none"/>
          </g>
          <g id="Rectangle_3966" data-name="Rectangle 3966" transform="translate(29 525)" fill="none" stroke="#0093ff" stroke-width="5">
            <rect width="251" height="116" stroke="none"/>
            <rect x="2.5" y="2.5" width="246" height="111" fill="none"/>
          </g>
          <g id="Rectangle_3967" data-name="Rectangle 3967" transform="translate(29 777)" fill="none" stroke="#0093ff" stroke-width="5">
            <rect width="251" height="159" stroke="none"/>
            <rect x="2.5" y="2.5" width="246" height="154" fill="none"/>
          </g>
          <rect id="Rectangle_3968" data-name="Rectangle 3968" width="251" height="159" transform="translate(29 778)" fill="#7ec8ff" opacity="0.3"/>
        </g>
        <g id="Group_1189" data-name="Group 1189" transform="translate(-391 566)">
          <rect id="Rectangle_1735" data-name="Rectangle 1735" width="228" height="131" rx="5" transform="translate(438 397)" fill="#0093ff"/>
          <text id="_3職種まで設定いただけます_必要に応じて_企業概要_特設ページ_を表示させることができます_" data-name="3職種まで設定いただけます。
必要に応じて
・企業概要
・特設ページ
を表示させることができます。" transform="translate(449 413)" fill="#fff" font-size="14" font-family="Meiryo-Bold, Meiryo" font-weight="700"><tspan x="0" y="15">3職種まで設定いただけます。</tspan><tspan x="0" y="36">必要に応じて</tspan><tspan x="0" y="57">・企業概要</tspan><tspan x="0" y="78">・特設ページ</tspan><tspan x="0" y="99">を表示させることができます。</tspan></text>
          <path id="Path_390" data-name="Path 390" d="M7.234,7.09,14,21H0Z" transform="translate(545 376.91)" fill="#0093ff"/>
        </g>
      </g>
    </g>
    <g id="Group_1190" data-name="Group 1190" transform="translate(-325 35)">
      <rect id="Rectangle_1735-2" data-name="Rectangle 1735" width="186" height="68" rx="5" transform="translate(387 397)" fill="#0093ff"/>
      <path id="Path_52" data-name="Path 52" d="M7.234,7.09,14,21H0Z" transform="translate(476 375.91)" fill="#0093ff"/>
      <text id="_1社限定配信のメールオプションです" data-name="1社限定配信のメールオプションです" transform="translate(401 410)" fill="#fff" font-size="14" font-family="Meiryo-Bold, Meiryo" font-weight="700"><tspan x="0" y="15">1社限定配信のメールオ</tspan><tspan x="0" y="36">プションです</tspan></text>
    </g>
  </g>
</svg>
